<svg width="166" height="152" viewBox="0 0 166 152" fill="none" xmlns="http://www.w3.org/2000/svg">
<path fill-rule="evenodd" clip-rule="evenodd" d="M166 91.0585H149.375H114.5H79.625H44.75H9.875H0V45.0585C0 44.0503 0.0248707 43.0478 0.0740302 42.0517C3.25143 46.6413 6.56321 50.0503 9.875 51.3085C16.2159 53.7176 22.5568 48.2424 28.8977 42.7672C34.1818 38.2045 39.4659 33.6419 44.75 33.6419C50.5625 33.6419 56.375 39.1627 62.1875 44.6835C68 50.2044 73.8125 55.7252 79.625 55.7252C88.5673 55.7252 97.5096 42.6581 106.452 29.5911C109.135 25.671 111.817 21.7508 114.5 18.1835C126.125 2.72519 137.75 -6.10815 149.375 4.93352C153.077 8.45005 156.78 13.9825 160.482 19.8901C164.024 27.5441 166 36.0705 166 45.0585V91.0585Z" fill="#0080D6"/>
<path fill-rule="evenodd" clip-rule="evenodd" d="M3.21858 25.6207C1.13225 31.7167 0 38.2554 0 45.0585V91.0585C0 100.77 2.30734 109.943 6.40375 118.059H46.2H86.5H126.8H159.596C163.693 109.943 166 100.77 166 91.0585V45.0585C166 39.7381 165.308 34.5794 164.008 29.6677C156.083 31.3884 148.158 39.3198 140.233 47.2511C135.756 51.7326 131.278 56.2141 126.8 59.5752C113.367 69.6585 99.9333 69.6585 86.5 65.6252C73.0667 61.5918 59.6333 53.5252 46.2 41.4252C44.4089 39.8119 42.6178 38.1268 40.8267 36.4418C29.1844 25.489 17.5422 14.5363 5.9 23.2752C5.0062 23.9461 4.11239 24.7331 3.21858 25.6207Z" fill="#008FEE"/>
<path fill-rule="evenodd" clip-rule="evenodd" d="M60 151.379H83H106C139.137 151.379 166 124.516 166 91.379V45.379C166 38.2464 164.755 31.4044 162.472 25.0585C155.802 32.5207 148.651 39.1306 141.5 43.2332C130.667 49.4484 119.833 49.9088 109 50.3692C100.333 50.7375 91.6667 51.1059 83 54.4207C75.9091 57.1328 68.8182 61.8174 61.7273 66.5019C49.3182 74.6999 36.9091 82.8979 24.5 80.5248C16.0708 78.9128 7.64166 72.4232 0 64.3692V91.379C0 124.516 26.8629 151.379 60 151.379Z" fill="#0099FF"/>
</svg>
